# xmcd
#
# Track frame offsets:
#	150
#	27570
#	51185
#	76044
#	99199
#	125129
#	144103
#	170137
#	192948
#	219737
#
# Disc length: 3201 seconds
#
# Revision: 3288039972
# Processed by: cddbd v1.5.2PL0 Copyright (c) Steve Scherf et al.
# Submitted via: EZCDAudioConverter 8.0.2.1
#
DISCID=890c7f0a
DTITLE=Mỹ Linh - Mùa Thu Không Trở Lại
DYEAR=1998
DGENRE=World Pop
TTITLE0=Em còn nhớ hay em đã quên
TTITLE1=Biển chờ
TTITLE2=Một mình
TTITLE3=Một mai tôi qua đời
TTITLE4=Mong về Hà Nội
TTITLE5=Một ngày mùa đông
TTITLE6=Xin làm người hát rong
TTITLE7=Hơi thở mùa xuân
TTITLE8=Chiều Hà Nội
TTITLE9=Mùa Thu Không Trở Lại
EXTD=
EXTT0=
EXTT1=
EXTT2=
EXTT3=
EXTT4=
EXTT5=
EXTT6=
EXTT7=
EXTT8=
EXTT9=
PLAYORDER=
